REM DIRINDEX 1\2,1\4,1\3\5,1\3\6,1\3\7
REM DIRNAME folder01,folder02,folder03,folder04,folder05,folder06,folder07
TITLE ""
FILE "CD2Track16.mp3" MP3
  TRACK 01 AUDIO
    TITLE "0:"
    INDEX 01 00:00:00
  TRACK 02 AUDIO
    TITLE "5:cjc083_1798"
    INDEX 01 00:00:31
  TRACK 03 AUDIO
    TITLE "0:"
    INDEX 01 00:01:50
  TRACK 04 AUDIO
    TITLE "6:cjc083_1799"
    INDEX 01 00:02:20
  TRACK 05 AUDIO
    TITLE "0:"
    INDEX 01 00:03:33
  TRACK 06 AUDIO
    TITLE "5:cjc083_1800"
    INDEX 01 00:03:74
  TRACK 07 AUDIO
    TITLE "0:"
    INDEX 01 00:05:22
  TRACK 08 AUDIO
    TITLE "6:cjc083_1801"
    INDEX 01 00:05:65
  TRACK 09 AUDIO
    TITLE "0:"
    INDEX 01 00:07:35
  TRACK 10 AUDIO
    TITLE "5:cjc083_1802"
    INDEX 01 00:08:03
  TRACK 11 AUDIO
    TITLE "0:"
    INDEX 01 00:09:14
  TRACK 12 AUDIO
    TITLE "6:cjc083_1803"
    INDEX 01 00:09:59
  TRACK 13 AUDIO
    TITLE "0:"
    INDEX 01 00:11:35
  TRACK 14 AUDIO
    TITLE "5:cjc083_1804"
    INDEX 01 00:12:03
  TRACK 15 AUDIO
    TITLE "0:"
    INDEX 01 00:13:16
  TRACK 16 AUDIO
    TITLE "6:cjc083_1805"
    INDEX 01 00:13:63
  TRACK 17 AUDIO
    TITLE "0:"
    INDEX 01 00:14:72
  TRACK 18 AUDIO
    TITLE "5:cjc083_1806"
    INDEX 01 00:15:38
  TRACK 19 AUDIO
    TITLE "0:"
    INDEX 01 00:16:51
  TRACK 20 AUDIO
    TITLE "6:cjc083_1807"
    INDEX 01 00:17:25
  TRACK 21 AUDIO
    TITLE "0:"
    INDEX 01 00:18:70
  TRACK 22 AUDIO
    TITLE "5:cjc083_1808"
    INDEX 01 00:19:38
  TRACK 23 AUDIO
    TITLE "0:"
    INDEX 01 00:20:65
  TRACK 24 AUDIO
    TITLE "6:cjc083_1809"
    INDEX 01 00:21:41
  TRACK 25 AUDIO
    TITLE "0:"
    INDEX 01 00:23:28
  TRACK 26 AUDIO
    TITLE "5:cjc083_1810"
    INDEX 01 00:23:69
  TRACK 27 AUDIO
    TITLE "0:"
    INDEX 01 00:25:29
  TRACK 28 AUDIO
    TITLE "6:cjc083_1811"
    INDEX 01 00:26:03
  TRACK 29 AUDIO
    TITLE "0:"
    INDEX 01 00:27:08
  TRACK 30 AUDIO
    TITLE "5:cjc083_1812"
    INDEX 01 00:27:55
  TRACK 31 AUDIO
    TITLE "0:"
    INDEX 01 00:29:11
  TRACK 32 AUDIO
    TITLE "6:cjc083_1813"
    INDEX 01 00:29:52
  TRACK 33 AUDIO
    TITLE "0:"
    INDEX 01 00:31:37
  TRACK 34 AUDIO
    TITLE "5:cjc083_1814"
    INDEX 01 00:32:03
  TRACK 35 AUDIO
    TITLE "0:"
    INDEX 01 00:33:17
  TRACK 36 AUDIO
    TITLE "6:cjc083_1815"
    INDEX 01 00:33:62
  TRACK 37 AUDIO
    TITLE "0:"
    INDEX 01 00:35:19
  TRACK 38 AUDIO
    TITLE "5:cjc083_1816"
    INDEX 01 00:35:47
  TRACK 39 AUDIO
    TITLE "0:"
    INDEX 01 00:37:03
  TRACK 40 AUDIO
    TITLE "6:cjc083_1817"
    INDEX 01 00:37:42
  TRACK 41 AUDIO
    TITLE "0:"
    INDEX 01 00:38:61
  TRACK 42 AUDIO
    TITLE "5:cjc083_1818"
    INDEX 01 00:39:27
  TRACK 43 AUDIO
    TITLE "0:"
    INDEX 01 00:40:56
  TRACK 44 AUDIO
    TITLE "6:cjc083_1819"
    INDEX 01 00:41:20
  TRACK 45 AUDIO
    TITLE "0:"
    INDEX 01 00:42:45
  TRACK 46 AUDIO
    TITLE "5:cjc083_1820"
    INDEX 01 00:43:13
  TRACK 47 AUDIO
    TITLE "0:"
    INDEX 01 00:44:32
  TRACK 48 AUDIO
    TITLE "6:cjc083_1821"
    INDEX 01 00:44:71
  TRACK 49 AUDIO
    TITLE "0:"
    INDEX 01 00:46:58
  TRACK 50 AUDIO
    TITLE "5:cjc083_1822"
    INDEX 01 00:47:27
  TRACK 51 AUDIO
    TITLE "0:"
    INDEX 01 00:48:38
  TRACK 52 AUDIO
    TITLE "6:cjc083_1823"
    INDEX 01 00:49:14
  TRACK 53 AUDIO
    TITLE "0:"
    INDEX 01 00:50:09
  TRACK 54 AUDIO
    TITLE "5:cjc083_1824"
    INDEX 01 00:50:46
  TRACK 55 AUDIO
    TITLE "0:"
    INDEX 01 00:51:63
  TRACK 56 AUDIO
    TITLE "6:cjc083_1825"
    INDEX 01 00:52:37
  TRACK 57 AUDIO
    TITLE "0:"
    INDEX 01 00:53:37
  TRACK 58 AUDIO
    TITLE "5:cjc083_1826"
    INDEX 01 00:54:07
  TRACK 59 AUDIO
    TITLE "0:"
    INDEX 01 00:55:20
  TRACK 60 AUDIO
    TITLE "6:cjc083_1827"
    INDEX 01 00:55:63
  TRACK 61 AUDIO
    TITLE "0:"
    INDEX 01 00:57:09
  TRACK 62 AUDIO
    TITLE "7:cjc083_1828"
    INDEX 01 00:58:46
  TRACK 63 AUDIO
    TITLE "0:"
    INDEX 01 01:09:05
